{
  "accessors": [
    {
      "bufferView": 2,
      "componentType": 5126,
      "count": 705,
      "max": [
        24.05723762512207,
        76.211441040039062,
        3.9277064800262451
      ],
      "min": [
        -23.648588180541992,
        -119.4935302734375,
        -3.9277064800262451
      ],
      "type": "VEC3"
    },
    {
      "bufferView": 2,
      "byteOffset": 8460,
      "componentType": 5126,
      "count": 705,
      "max": [
        1,
        1,
        1
      ],
      "min": [
        -1,
        -1,
        -1
      ],
      "type": "VEC3"
    },
    {
      "bufferView": 3,
      "componentType": 5126,
      "count": 705,
      "max": [
        0.99999922513961792,
        0.99998766183853149,
        0.78480875492095947,
        1
      ],
      "min": [
        -1,
        -0.99987435340881348,
        -0.7848086953163147,
        -1
      ],
      "type": "VEC4"
    },
    {
      "bufferView": 1,
      "componentType": 5126,
      "count": 705,
      "max": [
        0.92592918872833252,
        0.97999995946884155
      ],
      "min": [
        0.019999999552965164,
        0.019999999552965164
      ],
      "type": "VEC2"
    },
    {
      "bufferView": 0,
      "componentType": 5125,
      "count": 2310,
      "max": [
        704
      ],
      "min": [
        0
      ],
      "type": "SCALAR"
    }
  ],
  "asset": {
    "generator": "Sketchfab (OSG glTF plugin)",
    "version": "2.0"
  },
  "bufferViews": [
    {
      "buffer": 0,
      "byteLength": 9240,
      "byteOffset": 0,
      "name": "floatBufferViews",
      "target": 34963
    },
    {
      "buffer": 0,
      "byteLength": 5640,
      "byteOffset": 9240,
      "byteStride": 8,
      "name": "floatBufferViews",
      "target": 34962
    },
    {
      "buffer": 0,
      "byteLength": 16920,
      "byteOffset": 14880,
      "byteStride": 12,
      "name": "floatBufferViews",
      "target": 34962
    },
    {
      "buffer": 0,
      "byteLength": 11280,
      "byteOffset": 31800,
      "byteStride": 16,
      "name": "floatBufferViews",
      "target": 34962
    }
  ],
  "buffers": [
    {
      "byteLength": 43080,
      "uri": "scene.bin"
    }
  ],
  "images": [
    {
      "uri": "./Material_metallicRoughness.png"
    },
    {
      "uri": "./Material_normal.png"
    },
    {
      "uri": "./Material_baseColor.png"
    }
  ],
  "materials": [
    {
      "doubleSided": true,
      "emissiveFactor": [
        0,
        0,
        0
      ],
      "name": "Material #3",
      "normalTexture": {
        "index": 1,
        "scale": 1,
        "texCoord": 0
      },
      "occlusionTexture": {
        "index": 0,
        "strength": 1,
        "texCoord": 0
      },
      "pbrMetallicRoughness": {
        "baseColorFactor": [
          1,
          1,
          1,
          1
        ],
        "baseColorTexture": {
          "index": 2,
          "texCoord": 0
        },
        "metallicFactor": 1,
        "metallicRoughnessTexture": {
          "index": 0,
          "texCoord": 0
        },
        "roughnessFactor": 1
      }
    }
  ],
  "meshes": [
    {
      "name": "G_Espada_Material #3_0",
      "primitives": [
        {
          "attributes": {
            "NORMAL": 1,
            "POSITION": 0,
            "TANGENT": 2,
            "TEXCOORD_0": 3
          },
          "indices": 4,
          "material": 0,
          "mode": 4
        }
      ]
    }
  ],
  "nodes": [
    {
      "children": [
        1
      ],
      "name": "RootNode (gltf orientation matrix)",
      "rotation": [
        -0.70710678118654746,
        -0,
        -0,
        0.70710678118654757
      ]
    },
    {
      "children": [
        2
      ],
      "name": "RootNode (model correction matrix)"
    },
    {
      "children": [
        3
      ],
      "matrix": [
        1,
        0,
        0,
        0,
        0,
        0,
        1,
        0,
        0,
        -1,
        0,
        0,
        0,
        0,
        0,
        1
      ],
      "name": "3dee68f91f0247a8846dc18749538acb.fbx"
    },
    {
      "children": [
        4
      ],
      "name": "RootNode"
    },
    {
      "children": [
        5
      ],
      "matrix": [
        0.39370077848434448,
        0,
        0,
        0,
        0,
        8.7419133817233537e-17,
        -0.39370077848434448,
        0,
        0,
        0.39370077848434448,
        8.7419133817233537e-17,
        0,
        0,
        47.920421600341797,
        0,
        1
      ],
      "name": "G_Espada"
    },
    {
      "children": [
        7
      ],
      "matrix": [
        1,
        0,
        0,
        0,
        0,
        -1.3315804658462255e-07,
        0.99999994039534634,
        0,
        0,
        -0.99999994039534634,
        -1.3315804658462255e-07,
        0,
        0,
        0,
        0,
        1
      ],
      "name": ""
    },
    {
      "mesh": 0,
      "name": "G_Espada_Material #3_0"
    },
    {
      "children": [
        6
      ],
      "name": "Geode"
    }
  ],
  "samplers": [
    {
      "magFilter": 9729,
      "minFilter": 9987,
      "wrapS": 10497,
      "wrapT": 10497
    }
  ],
  "scene": 0,
  "scenes": [
    {
      "name": "OSG_Scene",
      "nodes": [
        0
      ]
    }
  ],
  "textures": [
    {
      "sampler": 0,
      "source": 0
    },
    {
      "sampler": 0,
      "source": 1
    },
    {
      "sampler": 0,
      "source": 2
    }
  ]
}

